<?xml version="1.0" encoding="UTF-8" standalone="no"?>
<!DOCTYPE svg PUBLIC "-//W3C//DTD SVG 1.1//EN" "http://www.w3.org/Graphics/SVG/1.1/DTD/svg11.dtd">
<svg width="100%" height="100%" viewBox="0 0 275 32" version="1.1" xmlns="http://www.w3.org/2000/svg" xmlns:xlink="http://www.w3.org/1999/xlink" xml:space="preserve" xmlns:serif="http://www.serif.com/" style="fill-rule:evenodd;clip-rule:evenodd;stroke-linejoin:round;stroke-miterlimit:2;">
    <g transform="matrix(1,0,0,1,-7.33893,-13.7342)">
        <path d="M46.052,23.23L48.678,23.23L48.678,27.547L48.718,27.547C49.012,27.158 49.401,26.85 49.846,26.652C50.32,26.451 50.816,26.308 51.324,26.224C51.441,26.224 51.596,26.184 51.724,26.184L52.074,26.184C53.549,26.139 54.976,26.718 56.002,27.779C56.974,28.747 57.52,30.063 57.519,31.435C57.525,31.643 57.512,31.851 57.479,32.057C57.446,32.281 57.393,32.502 57.323,32.718C57.209,33.147 57.052,33.564 56.856,33.963C56.665,34.349 56.416,34.704 56.116,35.013C55.628,35.557 55.014,35.971 54.327,36.219C53.634,36.495 52.895,36.64 52.149,36.647C51.442,36.66 50.74,36.528 50.087,36.257C49.453,35.994 48.901,35.563 48.492,35.012L48.452,35.012L48.452,36.334L46.052,36.334L46.052,23.23ZM49.495,29.337C48.868,29.817 48.507,30.569 48.523,31.36C48.511,32.178 48.823,32.965 49.418,33.538C50.056,34.144 50.912,34.466 51.791,34.432C52.629,34.473 53.447,34.162 54.047,33.576C54.623,33.034 54.936,32.267 54.903,31.476C54.921,30.688 54.611,29.926 54.047,29.376C53.447,28.79 52.629,28.479 51.791,28.52C50.951,28.505 50.137,28.795 49.496,29.337L49.495,29.337ZM69.993,36.417L67.58,36.417L67.58,35.095L67.54,35.095C67.203,35.545 66.763,35.895 66.256,36.145C65.733,36.419 65.168,36.603 64.584,36.69C64.467,36.69 64.35,36.73 64.234,36.73L63.884,36.73C63.111,36.738 62.344,36.593 61.628,36.302C60.977,36.029 60.393,35.617 59.916,35.096C59.477,34.622 59.134,34.067 58.905,33.462C58.673,32.84 58.555,32.181 58.555,31.517C58.554,30.869 58.659,30.225 58.866,29.611C59.113,29.007 59.469,28.453 59.916,27.978C60.424,27.421 61.048,26.983 61.744,26.694C62.448,26.407 63.201,26.261 63.961,26.266C64.67,26.265 65.373,26.411 66.023,26.694C66.659,26.972 67.21,27.416 67.618,27.978L67.618,26.578L70.03,26.578L70.03,36.418L69.993,36.417ZM67.543,31.437C67.569,30.659 67.256,29.906 66.687,29.375C66.092,28.775 65.267,28.475 64.431,28.558C63.459,28.558 62.681,28.83 62.098,29.414C61.5,29.977 61.173,30.771 61.203,31.592C61.19,32.372 61.533,33.118 62.137,33.615C62.763,34.155 63.567,34.447 64.393,34.432C65.243,34.473 66.073,34.163 66.688,33.576C67.25,33.007 67.558,32.235 67.544,31.436L67.543,31.437ZM71.938,23.23L74.544,23.23L74.544,36.416L71.938,36.416L71.938,23.23ZM78.938,32.526C79.124,33.107 79.51,33.603 80.027,33.926C80.56,34.268 81.183,34.444 81.817,34.432C82.294,34.437 82.768,34.358 83.217,34.199C83.602,34.081 83.95,33.867 84.217,33.577L87.095,33.577C86.795,34.472 86.123,35.211 85.111,35.833C84.146,36.446 83.026,36.77 81.883,36.767C80.39,36.8 78.941,36.256 77.838,35.25C76.762,34.344 76.148,33.001 76.166,31.594C76.146,30.153 76.757,28.774 77.838,27.821C78.942,26.786 80.41,26.227 81.922,26.265C83.399,26.228 84.831,26.79 85.889,27.821C86.978,28.871 87.523,30.077 87.523,31.438C87.529,31.595 87.516,31.752 87.483,31.905C87.443,32.06 87.443,32.205 87.405,32.333C87.405,32.373 87.365,32.411 87.365,32.45L87.365,32.567L78.925,32.567L78.938,32.526ZM84.888,30.426C84.696,29.846 84.293,29.361 83.76,29.064C83.213,28.722 82.577,28.546 81.932,28.559L81.776,28.559C81.158,28.603 80.559,28.79 80.026,29.104C79.514,29.399 79.123,29.868 78.926,30.426L84.888,30.426ZM89.17,26.526L91.617,26.526L91.617,27.42L91.657,27.42C91.977,27.051 92.376,26.758 92.824,26.564C93.322,26.37 93.847,26.252 94.38,26.214L94.924,26.214C95.449,26.251 95.963,26.383 96.441,26.603C96.919,26.805 97.355,27.095 97.725,27.459C97.765,27.499 97.842,27.537 97.88,27.576C97.928,27.62 97.968,27.673 97.997,27.731C98.4,28.22 98.657,28.814 98.736,29.443C98.815,30.062 98.854,30.686 98.853,31.31L98.853,36.405L96.247,36.405L96.247,31.27C96.253,31.101 96.24,30.931 96.208,30.765C96.179,30.514 96.127,30.267 96.053,30.026C95.989,29.789 95.883,29.566 95.753,29.366C95.575,29.114 95.333,28.913 95.053,28.783C94.778,28.634 94.472,28.554 94.159,28.55L93.759,28.55C93.447,28.586 93.144,28.679 92.864,28.822C92.601,28.962 92.375,29.162 92.204,29.405C92.077,29.614 91.973,29.835 91.893,30.066C91.816,30.318 91.777,30.58 91.776,30.844L91.776,36.406L89.17,36.406L89.17,26.526ZM111.959,36.406L109.547,36.406L109.547,35.084L109.507,35.084C109.17,35.534 108.73,35.884 108.223,36.134C107.7,36.408 107.135,36.592 106.551,36.679C106.434,36.679 106.318,36.719 106.201,36.719L105.851,36.719C105.078,36.727 104.311,36.582 103.595,36.291C102.944,36.018 102.36,35.606 101.884,35.085C101.445,34.611 101.102,34.056 100.873,33.451C100.641,32.829 100.523,32.17 100.523,31.506C100.522,30.858 100.627,30.214 100.834,29.6C101.081,28.996 101.437,28.442 101.884,27.967C102.392,27.41 103.016,26.972 103.712,26.683C104.416,26.396 105.169,26.25 105.929,26.255C106.638,26.254 107.341,26.4 107.991,26.683C108.627,26.961 109.178,27.405 109.586,27.967L109.586,26.567L112,26.567L112,36.407L111.959,36.406ZM109.459,31.426C109.485,30.648 109.172,29.895 108.603,29.364C108.008,28.764 107.183,28.464 106.347,28.547C105.375,28.547 104.597,28.819 104.014,29.403C103.416,29.966 103.089,30.76 103.119,31.581C103.106,32.361 103.449,33.107 104.053,33.604C104.679,34.144 105.483,34.436 106.309,34.421C107.159,34.462 107.989,34.152 108.604,33.565C109.181,33.007 109.504,32.228 109.46,31.425L109.459,31.426Z" style="fill:rgb(42,80,111);fill-rule:nonzero;"/>
    </g>
    <g transform="matrix(0.0641971,0,0,0.0641971,-0.364704,-0.192784)">
        <path d="M252.209,3.003C116.055,3.003 5.681,113.378 5.681,249.531C5.681,385.685 116.056,496.059 252.209,496.059C388.363,496.059 498.738,385.685 498.738,249.531C498.738,113.378 388.364,3.003 252.209,3.003ZM407.887,405.21C387.659,425.438 364.112,441.315 337.898,452.403C310.773,463.876 281.942,469.694 252.209,469.694C222.476,469.694 193.646,463.876 166.521,452.403C140.307,441.315 116.759,425.437 96.531,405.21C76.303,384.981 60.425,361.435 49.338,335.221C37.865,308.095 32.047,279.265 32.047,249.532C32.047,219.799 37.864,190.969 49.338,163.844C60.425,137.63 76.304,114.082 96.531,93.855C116.759,73.627 140.307,57.749 166.521,46.662C193.646,35.188 222.477,29.371 252.209,29.371C281.942,29.371 310.772,35.188 337.898,46.662C364.112,57.749 387.66,73.628 407.887,93.855C428.115,114.083 443.993,137.63 455.081,163.844C466.554,190.969 472.372,219.799 472.372,249.532C472.372,279.265 466.555,308.095 455.081,335.221C443.994,361.435 428.115,384.981 407.887,405.21Z" style="fill:rgb(223,175,55);fill-rule:nonzero;"/>
    </g>
    <g transform="matrix(0.0566341,0,0,0.0566341,15.2412,15.4394)">
        <g transform="matrix(1,0,0,1,-256,-256)">
            <path d="M237.263,84.591L283.934,193.903C285.668,197.967 283.781,202.667 279.717,204.402C275.654,206.137 270.953,204.249 269.219,200.186L218.177,80.635C217.258,78.484 217.327,76.038 218.366,73.942C219.405,71.846 221.309,70.309 223.577,69.737C230.408,68.014 237.071,67.736 243.204,69.598C249.472,71.501 254.505,75.435 258.248,80.907C258.306,80.992 258.362,81.078 258.417,81.165L323.75,185.054C330.954,180.789 338.186,177 345.459,173.691C345.899,173.441 346.354,173.237 346.818,173.078C380.429,158.044 414.477,153.267 448.81,159.008C448.893,159.021 448.976,159.037 449.059,159.053C451.975,159.636 454.982,160.566 457.499,162.211C460.19,163.97 462.74,166.877 463.228,171.067C463.673,174.893 462.188,178.183 460.673,180.514C459.146,182.864 457.034,185.104 454.653,187.229C437.107,204.652 407.527,220.762 366.929,235.969L366.901,235.979C363.214,237.345 359.425,238.819 355.51,240.395L398.488,410.108C398.52,410.232 398.549,410.358 398.574,410.484C399.989,417.469 399.594,424.32 396.365,430.347C393.131,436.384 387.647,440.483 381.051,443.113C377.015,444.722 372.433,442.815 370.729,438.818L296.717,265.164C263.751,279.289 238.73,290.377 221.55,298.472L221.546,298.474C196.25,310.373 180.598,317.716 174.669,320.429C174.372,320.567 174.051,320.716 173.706,320.876C173.729,321.281 173.741,321.688 173.741,322.096C173.741,327.591 171.735,332.465 167.904,336.354L167.862,336.397C163.965,340.294 158.999,342.395 153.448,342.348C148.191,342.338 143.547,340.458 139.8,336.986C136.445,338.597 132.885,340.308 129.086,342.152C126.015,343.642 122.337,343.02 119.927,340.602C108.97,329.609 86.052,305.444 51.309,268.293C50.187,267.273 49.349,265.93 48.947,264.382C48.033,260.853 49.619,257.152 52.805,255.382L72.986,244.166C75.659,242.681 78.944,242.848 81.451,244.598L149.282,291.938C182.571,275.967 211.711,260.136 236.735,244.391C263.816,227.277 282.085,214.913 291.814,207.177L291.822,207.171C297.936,202.324 304.068,197.798 310.233,193.615L244.962,89.824C243.08,87.119 240.96,85.638 238.556,84.908C238.15,84.785 237.719,84.678 237.263,84.59ZM325.011,203.037C317.275,207.98 309.538,213.544 301.768,219.705C291.28,228.042 272.334,240.821 245.274,257.921L245.261,257.93C218.538,274.744 187.425,291.538 151.958,308.39C149.362,309.624 146.303,309.37 143.946,307.725L76.391,260.578L69.557,264.377C96.991,293.676 116.216,313.961 127.267,325.259C129.412,324.225 131.48,323.232 133.464,322.279C135.292,321.401 137.048,320.557 138.728,319.747C140.687,318.803 142.946,318.697 144.985,319.453C147.024,320.21 148.667,321.764 149.536,323.757C149.685,324.099 149.956,324.537 150.502,325.083C151.43,326.011 152.267,326.348 153.489,326.348L153.574,326.348C154.712,326.36 155.584,326.039 156.527,325.104C157.395,324.215 157.741,323.377 157.741,322.096C157.741,321.243 157.556,320.591 157.288,320.076C156.279,318.139 156.106,315.872 156.81,313.804C157.514,311.736 159.033,310.045 161.015,309.125C162.315,308.521 163.479,307.982 164.511,307.504C165.88,306.869 167.017,306.343 167.93,305.917L167.986,305.891C173.794,303.235 189.35,295.937 214.735,283.996C232.18,275.777 257.425,264.593 290.48,250.43L288.365,245.48C286.683,241.543 288.398,236.979 292.257,235.125L318.796,222.374C322.778,220.46 327.558,222.137 329.471,226.12C331.385,230.102 329.708,234.882 325.725,236.795L306.086,246.232L308.329,251.48C308.445,251.753 308.546,252.029 308.63,252.307L381.684,423.712C381.908,423.403 382.099,423.095 382.262,422.791C383.235,420.975 383.785,418.214 382.928,413.837L338.294,237.585C337.319,233.735 339.316,229.753 342.984,228.231C349.326,225.601 355.423,223.168 361.331,220.98C401.463,205.947 428.47,190.752 443.518,175.737C443.631,175.624 443.747,175.515 443.866,175.41C444.199,175.115 444.507,174.833 444.792,174.564C417.642,170.268 390.594,173.2 363.501,183.487C365.839,184.898 368.389,185.793 371.173,186.238C377.606,187.268 386.103,186.013 397.07,181.416C401.145,179.707 405.833,181.626 407.541,185.701C409.249,189.775 407.331,194.463 403.256,196.172C390.791,201.397 379.126,203.714 368.645,202.038C360.119,200.673 352.913,196.748 347.136,190.589C339.93,194.11 332.717,198.165 325.477,202.762C325.325,202.859 325.169,202.951 325.011,203.037Z" style="fill:rgb(42,80,111);"/>
        </g>
    </g>
    <g transform="matrix(1.17269,0,0,1.17269,109.848,22.5858)">
        <text x="0px" y="0px" style="font-family:'ArialRoundedMTBold', 'Arial Rounded MT Bold', sans-serif;font-size:14.667px;fill:rgb(223,175,55);">OGN Glider T<tspan x="94.19px 100.248px 108.964px 117.121px 124.97px 133.686px " y="0px 0px 0px 0px 0px 0px ">racker</tspan></text>
    </g>
</svg>
