<svg clip-rule="evenodd" fill-rule="evenodd" stroke-linejoin="round" stroke-miterlimit="2" viewBox="0 0 32 32" xmlns="http://www.w3.org/2000/svg"><path d="m252.209 3.003c-136.154 0-246.528 110.375-246.528 246.528 0 136.154 110.375 246.528 246.528 246.528 136.154 0 246.529-110.374 246.529-246.528 0-136.153-110.374-246.528-246.529-246.528zm155.678 402.207c-20.228 20.228-43.775 36.105-69.989 47.193-27.125 11.473-55.956 17.291-85.689 17.291s-58.563-5.818-85.688-17.291c-26.214-11.088-49.762-26.966-69.99-47.193-20.228-20.229-36.106-43.775-47.193-69.989-11.473-27.126-17.291-55.956-17.291-85.689s5.817-58.563 17.291-85.688c11.087-26.214 26.966-49.762 47.193-69.989 20.228-20.228 43.776-36.106 69.99-47.193 27.125-11.474 55.956-17.291 85.688-17.291 29.733 0 58.563 5.817 85.689 17.291 26.214 11.087 49.762 26.966 69.989 47.193 20.228 20.228 36.106 43.775 47.194 69.989 11.473 27.125 17.291 55.955 17.291 85.688s-5.817 58.563-17.291 85.689c-11.087 26.214-26.966 49.76-47.194 69.989z" fill="#dfaf37" fill-rule="nonzero" transform="matrix(.0641971 0 0 .0641971 -.364704 -.192784)"/><path d="m237.263 84.591 46.671 109.312c1.734 4.064-.153 8.764-4.217 10.499-4.063 1.735-8.764-.153-10.498-4.216l-51.042-119.551c-.919-2.151-.85-4.597.189-6.693s2.943-3.633 5.211-4.205c6.831-1.723 13.494-2.001 19.627-.139 6.268 1.903 11.301 5.837 15.044 11.309.058.085.114.171.169.258l65.333 103.889c7.204-4.265 14.436-8.054 21.709-11.363.44-.25.895-.454 1.359-.613 33.611-15.034 67.659-19.811 101.992-14.07.083.013.166.029.249.045 2.916.583 5.923 1.513 8.44 3.158 2.691 1.759 5.241 4.666 5.729 8.856.445 3.826-1.04 7.116-2.555 9.447-1.527 2.35-3.639 4.59-6.02 6.715-17.546 17.423-47.126 33.533-87.724 48.74l-.028.01c-3.687 1.366-7.476 2.84-11.391 4.416l42.978 169.713c.032.124.061.25.086.376 1.415 6.985 1.02 13.836-2.209 19.863-3.234 6.037-8.718 10.136-15.314 12.766-4.036 1.609-8.618-.298-10.322-4.295l-74.012-173.654c-32.966 14.125-57.987 25.213-75.167 33.308l-.004.002c-25.296 11.899-40.948 19.242-46.877 21.955-.297.138-.618.287-.963.447.023.405.035.812.035 1.22 0 5.495-2.006 10.369-5.837 14.258l-.042.043c-3.897 3.897-8.863 5.998-14.414 5.951-5.257-.01-9.901-1.89-13.648-5.362-3.355 1.611-6.915 3.322-10.714 5.166-3.071 1.49-6.749.868-9.159-1.55-10.957-10.993-33.875-35.158-68.618-72.309-1.122-1.02-1.96-2.363-2.362-3.911-.914-3.529.672-7.23 3.858-9l20.181-11.216c2.673-1.485 5.958-1.318 8.465.432l67.831 47.34c33.289-15.971 62.429-31.802 87.453-47.547 27.081-17.114 45.35-29.478 55.079-37.214l.008-.006c6.114-4.847 12.246-9.373 18.411-13.556l-65.271-103.791c-1.882-2.705-4.002-4.186-6.406-4.916-.406-.123-.837-.23-1.293-.318zm87.748 118.446c-7.736 4.943-15.473 10.507-23.243 16.668-10.488 8.337-29.434 21.116-56.494 38.216l-.013.009c-26.723 16.814-57.836 33.608-93.303 50.46-2.596 1.234-5.655.98-8.012-.665l-67.555-47.147-6.834 3.799c27.434 29.299 46.659 49.584 57.71 60.882 2.145-1.034 4.213-2.027 6.197-2.98 1.828-.878 3.584-1.722 5.264-2.532 1.959-.944 4.218-1.05 6.257-.294 2.039.757 3.682 2.311 4.551 4.304.149.342.42.78.966 1.326.928.928 1.765 1.265 2.987 1.265h.085c1.138.012 2.01-.309 2.953-1.244.868-.889 1.214-1.727 1.214-3.008 0-.853-.185-1.505-.453-2.02-1.009-1.937-1.182-4.204-.478-6.272s2.223-3.759 4.205-4.679c1.3-.604 2.464-1.143 3.496-1.621 1.369-.635 2.506-1.161 3.419-1.587l.056-.026c5.808-2.656 21.364-9.954 46.749-21.895 17.445-8.219 42.69-19.403 75.745-33.566l-2.115-4.95c-1.682-3.937.033-8.501 3.892-10.355l26.539-12.751c3.982-1.914 8.762-.237 10.675 3.746 1.914 3.982.237 8.762-3.746 10.675l-19.639 9.437 2.243 5.248c.116.273.217.549.301.827l73.054 171.405c.224-.309.415-.617.578-.921.973-1.816 1.523-4.577.666-8.954l-44.634-176.252c-.975-3.85 1.022-7.832 4.69-9.354 6.342-2.63 12.439-5.063 18.347-7.251 40.132-15.033 67.139-30.228 82.187-45.243.113-.113.229-.222.348-.327.333-.295.641-.577.926-.846-27.15-4.296-54.198-1.364-81.291 8.923 2.338 1.411 4.888 2.306 7.672 2.751 6.433 1.03 14.93-.225 25.897-4.822 4.075-1.709 8.763.21 10.471 4.285 1.708 4.074-.21 8.762-4.285 10.471-12.465 5.225-24.13 7.542-34.611 5.866-8.526-1.365-15.732-5.29-21.509-11.449-7.206 3.521-14.419 7.576-21.659 12.173-.152.097-.308.189-.466.275z" fill="#2a506f" transform="matrix(.0566341 0 0 .0566341 .7428704 .9410704)"/></svg>